<?xml version="1.0" encoding="utf-8"?>
<!-- Generator: Adobe Illustrator 24.3.0, SVG Export Plug-In . SVG Version: 6.00 Build 0)  -->
<svg version="1.1" id="Layer_1" xmlns="http://www.w3.org/2000/svg" xmlns:xlink="http://www.w3.org/1999/xlink" x="0px" y="0px"
	 viewBox="0 0 210.6 29.3" style="enable-background:new 0 0 210.6 29.3;" xml:space="preserve">
<style type="text/css">
	.st0{enable-background:new    ;}
	.st1{fill:#FFFFFF;}
</style>
<g class="st0">
	<path class="st1" d="M19.7,11.6l-1.3,2.7l-3.5,6.4l-3.5-6.4L10,11.4H9.9v12.1H6.2V5.4h4.2l4.5,8.5h0.1l4.4-8.5h4.2v18.2h-3.7
		L19.7,11.6L19.7,11.6z"/>
	<path class="st1" d="M29,21.4c-1.2-1.6-1.8-3.9-1.8-7c0-3,0.6-5.4,1.8-7c1.2-1.6,3-2.4,5.4-2.4c2.4,0,4.2,0.8,5.4,2.4
		c1.2,1.6,1.8,3.9,1.8,7c0,3-0.6,5.4-1.8,7c-1.2,1.6-3,2.4-5.4,2.4C32,23.9,30.2,23.1,29,21.4z M36.7,19.5c0.5-0.8,0.7-2,0.7-3.5
		v-3.2c0-1.5-0.2-2.7-0.7-3.5c-0.5-0.8-1.2-1.2-2.3-1.2s-1.8,0.4-2.3,1.2c-0.5,0.8-0.7,1.9-0.7,3.5V16c0,1.5,0.2,2.7,0.7,3.5
		c0.5,0.8,1.2,1.2,2.3,1.2S36.2,20.3,36.7,19.5z"/>
	<path class="st1" d="M42.4,5.4h4.3l2.1,9.2l1.1,5.2h0.2l1.1-5.2l2.2-9.2h4.1l-4.8,18.2h-5.5L42.4,5.4z"/>
	<path class="st1" d="M59.9,5.4h11.6v3.2h-7.7v4.2h7.4v3.2h-7.4v4.4h7.7v3.2H59.9V5.4z"/>
	<path class="st1" d="M99.3,19.2h-5l-1.1,4.4h-4l4.9-18.2h5.5l4.9,18.2h-4.2L99.3,19.2z M96.7,9.1L94.9,16h3.8l-1.8-6.9H96.7z"/>
	<path class="st1" d="M121.3,11.6l-1.3,2.7l-3.5,6.4l-3.5-6.4l-1.4-2.9h-0.1v12.1h-3.7V5.4h4.2l4.5,8.5h0.1l4.4-8.5h4.2v18.2h-3.7
		L121.3,11.6L121.3,11.6z"/>
	<path class="st1" d="M130.2,5.4h11.6v3.2h-7.7v4.2h7.4v3.2h-7.4v4.4h7.7v3.2h-11.6V5.4z"/>
	<path class="st1" d="M145.8,23.5V5.4h7c1.8,0,3.1,0.5,4.1,1.5c1,1,1.5,2.4,1.5,4.2c0,1.3-0.3,2.4-0.8,3.3c-0.6,0.9-1.3,1.5-2.4,1.8
		l3.6,7.3h-4.3l-3-6.7h-1.8v6.7H145.8z M153.8,13.3c0.4-0.3,0.5-0.9,0.5-1.7v-0.8c0-0.8-0.2-1.4-0.5-1.7c-0.4-0.3-1-0.5-1.9-0.5
		h-2.2v5.3h2.2C152.8,13.8,153.4,13.6,153.8,13.3z"/>
	<path class="st1" d="M161.4,20.7h3.9V8.3h-3.9V5.4h11.7v2.9h-3.9v12.4h3.9v2.9h-11.7V20.7z"/>
	<path class="st1" d="M177.9,21.4c-1.2-1.6-1.8-3.9-1.8-7c0-3,0.6-5.4,1.8-7c1.2-1.6,3-2.4,5.4-2.4c3.5,0,5.6,1.7,6.4,5.2l-3.6,0.9
		c-0.2-1-0.5-1.7-1-2.2c-0.4-0.5-1.1-0.8-1.9-0.8c-1,0-1.8,0.4-2.2,1.2s-0.7,2-0.7,3.5V16c0,1.5,0.2,2.7,0.7,3.5s1.2,1.2,2.2,1.2
		c0.9,0,1.5-0.3,1.9-0.8c0.4-0.5,0.7-1.2,1-2.2l3.6,0.9c-0.8,3.5-2.9,5.2-6.4,5.2C180.9,23.9,179.1,23.1,177.9,21.4z"/>
	<path class="st1" d="M200.9,19.2h-5l-1.1,4.4h-4l4.9-18.2h5.5l4.9,18.2H202L200.9,19.2z M198.3,9.1l-1.8,6.9h3.8l-1.8-6.9H198.3z"
		/>
</g>
</svg>
